<?xml version="1.0" encoding="iso-8859-1"?>
<!-- Generator: Adobe Illustrator 19.0.0, SVG Export Plug-In . SVG Version: 6.00 Build 0)  -->
<svg version="1.1" id="Capa_1" xmlns="http://www.w3.org/2000/svg" xmlns:xlink="http://www.w3.org/1999/xlink" x="0px" y="0px"
	 viewBox="0 0 496 496" style="enable-background:new 0 0 496 496;" xml:space="preserve">
<linearGradient id="SVGID_1_" gradientUnits="userSpaceOnUse" x1="248" y1="500.355" x2="248" y2="-4.13" gradientTransform="matrix(1 0 0 -1 0 498.0001)">
	<stop  offset="0" style="stop-color:#00EFD1"/>
	<stop  offset="1" style="stop-color:#00ACEA"/>
</linearGradient>
<path style="fill:url(#SVGID_1_);" d="M413.586,225H304v-46.554C304,161.9,290.28,148,273.738,148H263v-30.11
	c-0.121-16.579-13.621-29.941-30.2-29.89H185V62h52.963c5.534-0.012,10.011-4.508,9.999-10.043
	c-0.005-2.184-0.723-4.307-2.045-6.045l-11.382-14.944l11.382-14.942c3.342-4.38,2.501-10.639-1.879-13.981
	c-1.745-1.331-3.88-2.05-6.075-2.045h-63c-5.488-0.014-9.949,4.423-9.963,9.911c0,0.017,0,0.035,0,0.052V88h-47.877
	C100.56,87.957,87.086,101.327,87,117.89V148h-4.586C65.686,148.195,52.178,161.718,52,178.446v307.591
	C52,491.56,56.891,496,62.414,496h371.172c5.523,0,10.414-4.44,10.414-9.963V255.076C444,238.534,430.128,225,413.586,225
	L413.586,225z M185,20h32.772l-3.763,4.921c-2.728,3.583-2.728,8.547,0,12.13L217.772,42H185V20z M107,117.89
	c0.073-5.523,4.6-9.946,10.123-9.89H232.8c5.539-0.063,10.092,4.352,10.2,9.89V148H107V117.89z M208,476h-66v-52.819
	c-0.074-5.528,4.331-10.078,9.859-10.181h46.208c5.542,0.097,9.972,4.638,9.933,10.181L208,476z M275.895,476H228v-52.819
	c0.027-16.583-13.35-30.072-29.933-30.181h-46.208c-16.568,0.116-29.921,13.612-29.859,30.181V476H72V178.446
	c0.164-5.687,4.727-10.264,10.414-10.446h191.324c5.656,0.194,10.168,4.787,10.262,10.446V476H275.895z M424,476H304v-40h120V476z
	 M424,416H304v-44h120V416z M424,352H304v-42h120V352z M304,290v-45h109.586C419.1,245,424,249.562,424,255.076V290H304z"/>
<g>
	
		<linearGradient id="SVGID_2_" gradientUnits="userSpaceOnUse" x1="130" y1="500.355" x2="130" y2="-4.13" gradientTransform="matrix(1 0 0 -1 0 498.0001)">
		<stop  offset="0" style="stop-color:#00EFD1"/>
		<stop  offset="1" style="stop-color:#00ACEA"/>
	</linearGradient>
	<path style="fill:url(#SVGID_2_);" d="M164,201c0-5.523-4.477-10-10-10h-48c-5.523,0-10,4.477-10,10v48c0,5.523,4.477,10,10,10h48
		c5.523,0,10-4.477,10-10V201z M143,238h-27v-27h27V238z"/>
	
		<linearGradient id="SVGID_3_" gradientUnits="userSpaceOnUse" x1="221" y1="500.355" x2="221" y2="-4.13" gradientTransform="matrix(1 0 0 -1 0 498.0001)">
		<stop  offset="0" style="stop-color:#00EFD1"/>
		<stop  offset="1" style="stop-color:#00ACEA"/>
	</linearGradient>
	<path style="fill:url(#SVGID_3_);" d="M255,201c0-5.523-4.477-10-10-10h-48c-5.523,0-10,4.477-10,10v48c0,5.523,4.477,10,10,10h48
		c5.523,0,10-4.477,10-10V201z M234,238h-27v-27h27V238z"/>
	
		<linearGradient id="SVGID_4_" gradientUnits="userSpaceOnUse" x1="130" y1="500.355" x2="130" y2="-4.13" gradientTransform="matrix(1 0 0 -1 0 498.0001)">
		<stop  offset="0" style="stop-color:#00EFD1"/>
		<stop  offset="1" style="stop-color:#00ACEA"/>
	</linearGradient>
	<path style="fill:url(#SVGID_4_);" d="M164,301c0-5.523-4.477-10-10-10h-48c-5.523,0-10,4.477-10,10v48c0,5.523,4.477,10,10,10h48
		c5.523,0,10-4.477,10-10V301z M143,339h-27v-28h27V339z"/>
	
		<linearGradient id="SVGID_5_" gradientUnits="userSpaceOnUse" x1="221" y1="500.355" x2="221" y2="-4.13" gradientTransform="matrix(1 0 0 -1 0 498.0001)">
		<stop  offset="0" style="stop-color:#00EFD1"/>
		<stop  offset="1" style="stop-color:#00ACEA"/>
	</linearGradient>
	<path style="fill:url(#SVGID_5_);" d="M255,301c0-5.523-4.477-10-10-10h-48c-5.523,0-10,4.477-10,10v48c0,5.523,4.477,10,10,10h48
		c5.523,0,10-4.477,10-10V301z M234,339h-27v-28h27V339z"/>
</g>
<g>
</g>
<g>
</g>
<g>
</g>
<g>
</g>
<g>
</g>
<g>
</g>
<g>
</g>
<g>
</g>
<g>
</g>
<g>
</g>
<g>
</g>
<g>
</g>
<g>
</g>
<g>
</g>
<g>
</g>
</svg>
