<?xml version="1.0" encoding="iso-8859-1"?>
<!-- Generator: Adobe Illustrator 19.0.0, SVG Export Plug-In . SVG Version: 6.00 Build 0)  -->
<svg version="1.1" id="Capa_1" xmlns="http://www.w3.org/2000/svg" xmlns:xlink="http://www.w3.org/1999/xlink" x="0px" y="0px"
	 viewBox="0 0 440 440" style="enable-background:new 0 0 440 440;" xml:space="preserve">
<linearGradient id="SVGID_1_" gradientUnits="userSpaceOnUse" x1="220" y1="472.3551" x2="220" y2="-32.1299" gradientTransform="matrix(1 0 0 -1 0 442.0002)">
	<stop  offset="0" style="stop-color:#00EFD1"/>
	<stop  offset="1" style="stop-color:#00ACEA"/>
</linearGradient>
<path style="fill:url(#SVGID_1_);" d="M403.138,236H313v-10.3c4.22,3.375,10.343,2.857,13.936-1.179l25.4-28.955
	c3.635-4.085,3.27-10.342-0.815-13.977c-0.078-0.07-0.158-0.138-0.238-0.205L230,77.608V62h53.153
	c5.532-0.01,10.009-4.503,9.999-10.035c-0.004-2.185-0.722-4.308-2.045-6.047l-11.381-14.943l11.381-14.941
	c3.343-4.383,2.5-10.646-1.883-13.989c-1.744-1.33-3.878-2.049-6.071-2.045h-63C214.606-0.025,210.075,4.425,210,9.971V75.8
	L86.741,181.385c-4.174,3.618-4.632,9.932-1.023,14.114l24.894,28.955c1.804,2.203,4.5,3.481,7.347,3.482
	c2.215,0,5.041-0.739,6.041-2.234V236H36.862C20.39,235.98,7.02,249.316,7,265.788c0,0.035,0,0.07,0,0.105v164.136
	c-0.062,5.445,4.302,9.909,9.746,9.97c0.039,0,0.077,0.001,0.116,0.001h406.276c5.445,0.002,9.861-4.41,9.863-9.855
	c0-0.039,0-0.077-0.001-0.116V265.893c0.038-16.472-13.285-29.855-29.757-29.893C403.208,236,403.173,236,403.138,236z M230,20
	h32.963l-3.763,4.925c-2.727,3.583-2.727,8.545,0,12.128L262.963,42H230V20z M107.436,190.062L219.1,94.468L330.687,190
	l-12.166,13.9L225.6,124.378c-3.737-3.198-9.244-3.204-12.988-0.014l-93.31,79.5L107.436,190.062z M27,265.893
	c-0.051-5.412,4.294-9.841,9.706-9.893c0.052,0,0.104-0.001,0.156,0H124v164H27L27,265.893z M243,420h-48v-71h48V420z M263,420
	v-81.31c0.194-5.155-3.827-9.491-8.981-9.685c-0.18-0.007-0.36-0.008-0.54-0.005h-68.768c-5.245-0.118-9.593,4.039-9.711,9.285
	c-0.003,0.135-0.003,0.27,0,0.405V420h-31V208.676l74.711-63.551L293,208.6V420H263z M413,420H313V256h90.138
	c5.412-0.034,9.828,4.325,9.862,9.737c0,0.052,0,0.104,0,0.156V420z"/>
<g>
	
		<linearGradient id="SVGID_2_" gradientUnits="userSpaceOnUse" x1="218.869" y1="472.3551" x2="218.869" y2="-32.1299" gradientTransform="matrix(1 0 0 -1 0 442.0002)">
		<stop  offset="0" style="stop-color:#00EFD1"/>
		<stop  offset="1" style="stop-color:#00ACEA"/>
	</linearGradient>
	<path style="fill:url(#SVGID_2_);" d="M253.479,268h-69.22c-5.523,0-10,4.477-10,10s4.477,10,10,10h69.22c5.523,0,10-4.477,10-10
		S259.002,268,253.479,268z"/>
	
		<linearGradient id="SVGID_3_" gradientUnits="userSpaceOnUse" x1="55" y1="472.3551" x2="55" y2="-32.1299" gradientTransform="matrix(1 0 0 -1 0 442.0002)">
		<stop  offset="0" style="stop-color:#00EFD1"/>
		<stop  offset="1" style="stop-color:#00ACEA"/>
	</linearGradient>
	<path style="fill:url(#SVGID_3_);" d="M55,283.85c-5.523,0-10,4.477-10,10v17.192c0,5.523,4.477,10,10,10s10-4.477,10-10V293.85
		C65,288.327,60.523,283.85,55,283.85z"/>
	
		<linearGradient id="SVGID_4_" gradientUnits="userSpaceOnUse" x1="96" y1="472.3551" x2="96" y2="-32.1299" gradientTransform="matrix(1 0 0 -1 0 442.0002)">
		<stop  offset="0" style="stop-color:#00EFD1"/>
		<stop  offset="1" style="stop-color:#00ACEA"/>
	</linearGradient>
	<path style="fill:url(#SVGID_4_);" d="M96,283.85c-5.523,0-10,4.477-10,10v17.192c0,5.523,4.477,10,10,10c5.523,0,10-4.477,10-10
		V293.85C106,288.327,101.523,283.85,96,283.85z"/>
	
		<linearGradient id="SVGID_5_" gradientUnits="userSpaceOnUse" x1="55" y1="472.3551" x2="55" y2="-32.1299" gradientTransform="matrix(1 0 0 -1 0 442.0002)">
		<stop  offset="0" style="stop-color:#00EFD1"/>
		<stop  offset="1" style="stop-color:#00ACEA"/>
	</linearGradient>
	<path style="fill:url(#SVGID_5_);" d="M55,350.808c-5.523,0-10,4.477-10,10V378c0,5.523,4.477,10,10,10s10-4.477,10-10v-17.192
		C65,355.285,60.523,350.808,55,350.808z"/>
	
		<linearGradient id="SVGID_6_" gradientUnits="userSpaceOnUse" x1="96" y1="472.3551" x2="96" y2="-32.1299" gradientTransform="matrix(1 0 0 -1 0 442.0002)">
		<stop  offset="0" style="stop-color:#00EFD1"/>
		<stop  offset="1" style="stop-color:#00ACEA"/>
	</linearGradient>
	<path style="fill:url(#SVGID_6_);" d="M96,350.808c-5.523,0-10,4.477-10,10V378c0,5.523,4.477,10,10,10c5.523,0,10-4.477,10-10
		v-17.192C106,355.285,101.523,350.808,96,350.808z"/>
	
		<linearGradient id="SVGID_7_" gradientUnits="userSpaceOnUse" x1="344" y1="472.3551" x2="344" y2="-32.1299" gradientTransform="matrix(1 0 0 -1 0 442.0002)">
		<stop  offset="0" style="stop-color:#00EFD1"/>
		<stop  offset="1" style="stop-color:#00ACEA"/>
	</linearGradient>
	<path style="fill:url(#SVGID_7_);" d="M344,283.85c-5.523,0-10,4.477-10,10v17.192c0,5.523,4.477,10,10,10s10-4.477,10-10V293.85
		C354,288.327,349.523,283.85,344,283.85z"/>
	
		<linearGradient id="SVGID_8_" gradientUnits="userSpaceOnUse" x1="384" y1="472.3551" x2="384" y2="-32.1299" gradientTransform="matrix(1 0 0 -1 0 442.0002)">
		<stop  offset="0" style="stop-color:#00EFD1"/>
		<stop  offset="1" style="stop-color:#00ACEA"/>
	</linearGradient>
	<path style="fill:url(#SVGID_8_);" d="M384,283.85c-5.523,0-10,4.477-10,10v17.192c0,5.523,4.477,10,10,10s10-4.477,10-10V293.85
		C394,288.327,389.523,283.85,384,283.85z"/>
	
		<linearGradient id="SVGID_9_" gradientUnits="userSpaceOnUse" x1="344" y1="472.3551" x2="344" y2="-32.1299" gradientTransform="matrix(1 0 0 -1 0 442.0002)">
		<stop  offset="0" style="stop-color:#00EFD1"/>
		<stop  offset="1" style="stop-color:#00ACEA"/>
	</linearGradient>
	<path style="fill:url(#SVGID_9_);" d="M344,350.808c-5.523,0-10,4.477-10,10V378c0,5.523,4.477,10,10,10s10-4.477,10-10v-17.192
		C354,355.285,349.523,350.808,344,350.808z"/>
	
		<linearGradient id="SVGID_10_" gradientUnits="userSpaceOnUse" x1="384" y1="472.3551" x2="384" y2="-32.1299" gradientTransform="matrix(1 0 0 -1 0 442.0002)">
		<stop  offset="0" style="stop-color:#00EFD1"/>
		<stop  offset="1" style="stop-color:#00ACEA"/>
	</linearGradient>
	<path style="fill:url(#SVGID_10_);" d="M384,350.808c-5.523,0-10,4.477-10,10V378c0,5.523,4.477,10,10,10s10-4.477,10-10v-17.192
		C394,355.285,389.523,350.808,384,350.808z"/>
</g>
<g>
</g>
<g>
</g>
<g>
</g>
<g>
</g>
<g>
</g>
<g>
</g>
<g>
</g>
<g>
</g>
<g>
</g>
<g>
</g>
<g>
</g>
<g>
</g>
<g>
</g>
<g>
</g>
<g>
</g>
</svg>
